<svg width="147" height="53" viewBox="0 0 147 53" fill="none" xmlns="http://www.w3.org/2000/svg">
<g id="PgBee">
<path d="M6.17286 4.74211V18.1874H11.504C12.5141 18.1874 13.4493 18.0572 14.3098 17.7968C15.2077 17.5365 15.9933 17.146 16.6667 16.6253C17.3401 16.0674 17.8639 15.3607 18.238 14.5053C18.6121 13.6498 18.7992 12.627 18.7992 11.4368C18.7992 10.2467 18.6121 9.24246 18.238 8.42421C17.8639 7.56877 17.3401 6.8807 16.6667 6.36C15.9933 5.80211 15.2077 5.39298 14.3098 5.13263C13.4493 4.87228 12.5141 4.74211 11.504 4.74211H6.17286ZM24.972 11.8274C24.972 14.1333 24.5231 16.0116 23.6252 17.4621C22.7273 18.9126 21.6611 20.047 20.4265 20.8653C19.2294 21.6463 17.9948 22.1856 16.7228 22.4832C15.4883 22.7807 14.4969 22.9295 13.7486 22.9295H6.17286V39.0526H0V0H13.7486C15.3199 0 16.779 0.278947 18.1258 0.836841C19.51 1.39474 20.7071 2.19439 21.7172 3.23579C22.7273 4.24 23.513 5.46737 24.0741 6.9179C24.6727 8.36842 24.972 10.0049 24.972 11.8274Z" fill="black"/>
<path d="M32.4215 24.6589C32.4215 25.7747 32.6273 26.8161 33.0388 27.7832C33.4503 28.713 34.0115 29.5312 34.7223 30.2379C35.4706 30.9446 36.3123 31.5025 37.2476 31.9116C38.2203 32.3207 39.2304 32.5253 40.2779 32.5253C41.3628 32.5253 42.3729 32.3207 43.3082 31.9116C44.2809 31.5025 45.1227 30.9446 45.8335 30.2379C46.5817 29.5312 47.1616 28.6944 47.5731 27.7274C48.022 26.7604 48.2465 25.7189 48.2465 24.6032C48.2465 23.5246 48.022 22.5204 47.5731 21.5905C47.1616 20.6235 46.6004 19.7867 45.8896 19.08C45.1788 18.3733 44.337 17.834 43.3643 17.4621C42.429 17.053 41.4189 16.8484 40.334 16.8484C39.2491 16.8484 38.2203 17.053 37.2476 17.4621C36.3123 17.8712 35.4706 18.4291 34.7223 19.1358C34.0115 19.8425 33.4503 20.6793 33.0388 21.6463C32.6273 22.5761 32.4215 23.5804 32.4215 24.6589ZM26.3048 23.9895C26.3048 22.1298 26.6602 20.4004 27.371 18.8011C28.0818 17.2018 29.0358 15.807 30.233 14.6168C31.4301 13.3895 32.8331 12.4411 34.4417 11.7716C36.0878 11.0649 37.8275 10.7116 39.6606 10.7116C41.7556 10.7116 43.5701 11.2509 45.104 12.3295L47.0119 6.41579H53.1287L49.0321 14.5053C50.2667 15.6954 51.2394 17.1088 51.9502 18.7453C52.661 20.3446 53.0164 22.0926 53.0164 23.9895C53.0164 25.6632 52.7171 27.2439 52.1186 28.7316C51.52 30.1821 50.7156 31.5025 49.7055 32.6926L52.0625 38.7737C52.6984 40.4102 52.979 41.8979 52.9042 43.2368C52.8668 44.5758 52.5488 45.766 51.9502 46.8074C51.389 47.886 50.6221 48.7972 49.6494 49.5411C48.6767 50.3221 47.6105 50.973 46.4508 51.4937C45.291 52.0144 44.0751 52.3863 42.8032 52.6095C41.5686 52.8698 40.3901 53 39.2678 53C38.2577 53 37.2289 52.8698 36.1814 52.6095C35.1713 52.3491 34.1799 51.9958 33.2072 51.5495C32.2719 51.1404 31.3927 50.6382 30.5697 50.0432C29.7466 49.4853 29.0545 48.8902 28.4934 48.2579V41.1726C29.0171 41.9537 29.6531 42.6789 30.4013 43.3484C31.1496 44.0551 31.9726 44.6688 32.8705 45.1895C33.7683 45.7102 34.7036 46.1193 35.6763 46.4168C36.649 46.7144 37.6404 46.8632 38.6505 46.8632H38.7627C40.147 46.8632 41.4564 46.6586 42.6909 46.2495C43.9255 45.8404 44.9543 45.2639 45.7774 44.52C46.6004 43.8133 47.1616 42.9207 47.4609 41.8421C47.7976 40.8007 47.7414 39.6291 47.2925 38.3274L46.2263 34.98C45.3658 35.6867 44.3557 36.2446 43.196 36.6537C42.0736 37.0628 40.8952 37.2674 39.6606 37.2674C37.8275 37.2674 36.0878 36.9326 34.4417 36.2632C32.8331 35.5565 31.4301 34.6081 30.233 33.4179C29.0358 32.1905 28.0818 30.7772 27.371 29.1779C26.6602 27.5414 26.3048 25.8119 26.3048 23.9895Z" fill="black"/>
<path d="M63.5502 34.3105H69.2741C71.3317 34.3105 72.9404 33.7526 74.1002 32.6368C75.2973 31.4839 75.8959 29.6242 75.8959 27.0579C75.8959 22.2228 73.6886 19.8053 69.2741 19.8053H63.5502V34.3105ZM63.5502 4.74211V15.0632H69.2741C73.6886 15.0632 75.8959 13.2965 75.8959 9.76316C75.8959 7.90351 75.316 6.60175 74.1563 5.8579C73.0339 5.11404 71.4066 4.74211 69.2741 4.74211H63.5502ZM57.3773 39.0526V0H71.5749C74.7549 0 77.2988 0.706667 79.2068 2.12C81.1148 3.49614 82.0688 5.67193 82.0688 8.64737C82.0688 9.68877 81.9378 10.6186 81.6759 11.4368C81.4515 12.2551 81.1335 12.9804 80.722 13.6126C80.3104 14.2077 79.8428 14.7284 79.319 15.1747C78.7953 15.5839 78.2528 15.9372 77.6916 16.2347C76.3823 16.9042 74.9045 17.2947 73.2584 17.4063C73.2584 17.4063 73.4642 17.4435 73.8757 17.5179C74.2872 17.5551 74.811 17.6853 75.447 17.9084C76.1204 18.0944 76.8312 18.4105 77.5794 18.8568C78.365 19.266 79.0759 19.8611 79.7119 20.6421C80.3853 21.386 80.9464 22.353 81.3954 23.5432C81.8443 24.6961 82.0688 26.1095 82.0688 27.7832C82.0688 29.6056 81.8069 31.2235 81.2831 32.6368C80.7594 34.0502 80.0298 35.2404 79.0946 36.2074C78.1593 37.1372 77.0557 37.8439 75.7837 38.3274C74.5117 38.8109 73.1088 39.0526 71.5749 39.0526H57.3773Z" fill="black"/>
<path d="M109.787 21.4232C109.637 20.5305 109.282 19.7495 108.72 19.08C108.159 18.4105 107.486 17.8526 106.7 17.4063C105.952 16.9228 105.11 16.5695 104.175 16.3463C103.277 16.1232 102.36 16.0116 101.425 16.0116C100.677 16.0116 99.8913 16.1046 99.0682 16.2905C97.8337 16.5509 96.73 17.053 95.7573 17.7968C94.8221 18.5035 94.0364 19.3589 93.4004 20.3632C92.8019 21.3302 92.3903 22.3902 92.1659 23.5432C91.9788 24.6961 92.0349 25.8491 92.3342 27.0021L109.787 21.4232ZM113.434 34.1989C112.798 35.0916 111.956 35.8912 110.909 36.5979C109.899 37.3046 108.776 37.8996 107.542 38.3832C106.345 38.8295 105.11 39.1642 103.838 39.3874C102.566 39.6477 101.388 39.7779 100.303 39.7779C98.133 39.7779 96.094 39.406 94.1861 38.6621C92.3155 37.8811 90.7068 36.8025 89.36 35.4263C88.0132 34.0502 87.0031 32.3951 86.3297 30.4611C85.6563 28.527 85.4505 26.407 85.7124 24.1011C85.9369 22.167 86.4793 20.4004 87.3398 18.8011C88.2003 17.2018 89.2852 15.8256 90.5946 14.6726C91.904 13.5196 93.4004 12.627 95.0839 11.9947C96.8049 11.3253 98.638 10.9905 100.583 10.9905C102.08 10.9905 103.651 11.1951 105.297 11.6042C106.943 12.0133 108.458 12.7014 109.843 13.6684C111.227 14.5982 112.349 15.8442 113.21 17.4063C114.108 18.9312 114.538 20.8095 114.5 23.0411L92.8954 30.2937C93.7932 31.8558 95.0465 33.0088 96.6552 33.7526C98.2639 34.4593 99.9287 34.8126 101.65 34.8126C102.735 34.8126 103.857 34.6825 105.017 34.4221C106.176 34.1246 107.317 33.7154 108.44 33.1947C109.562 32.674 110.61 32.0603 111.582 31.3537C112.555 30.6098 113.359 29.8102 113.995 28.9547L113.434 34.1989Z" fill="black"/>
<path d="M142.284 21.4232C142.134 20.5305 141.779 19.7495 141.218 19.08C140.657 18.4105 139.983 17.8526 139.198 17.4063C138.449 16.9228 137.608 16.5695 136.672 16.3463C135.774 16.1232 134.858 16.0116 133.923 16.0116C133.174 16.0116 132.389 16.1046 131.566 16.2905C130.331 16.5509 129.227 17.053 128.255 17.7968C127.319 18.5035 126.534 19.3589 125.898 20.3632C125.299 21.3302 124.888 22.3902 124.663 23.5432C124.476 24.6961 124.532 25.8491 124.832 27.0021L142.284 21.4232ZM145.932 34.1989C145.296 35.0916 144.454 35.8912 143.406 36.5979C142.396 37.3046 141.274 37.8996 140.039 38.3832C138.842 38.8295 137.608 39.1642 136.336 39.3874C135.064 39.6477 133.885 39.7779 132.8 39.7779C130.63 39.7779 128.591 39.406 126.683 38.6621C124.813 37.8811 123.204 36.8025 121.857 35.4263C120.511 34.0502 119.5 32.3951 118.827 30.4611C118.154 28.527 117.948 26.407 118.21 24.1011C118.434 22.167 118.977 20.4004 119.837 18.8011C120.698 17.2018 121.783 15.8256 123.092 14.6726C124.401 13.5196 125.898 12.627 127.581 11.9947C129.302 11.3253 131.135 10.9905 133.081 10.9905C134.577 10.9905 136.148 11.1951 137.795 11.6042C139.441 12.0133 140.956 12.7014 142.34 13.6684C143.724 14.5982 144.847 15.8442 145.707 17.4063C146.605 18.9312 147.035 20.8095 146.998 23.0411L125.393 30.2937C126.291 31.8558 127.544 33.0088 129.153 33.7526C130.761 34.4593 132.426 34.8126 134.147 34.8126C135.232 34.8126 136.354 34.6825 137.514 34.4221C138.674 34.1246 139.815 33.7154 140.937 33.1947C142.059 32.674 143.107 32.0603 144.08 31.3537C145.052 30.6098 145.857 29.8102 146.493 28.9547L145.932 34.1989Z" fill="black"/>
</g>
</svg>
